<?xml version="1.0" encoding="utf-8"?>
<!-- Generator: Adobe Illustrator 21.0.2, SVG Export Plug-In . SVG Version: 6.00 Build 0)  -->
<svg version="1.1" id="Layer_1" xmlns="http://www.w3.org/2000/svg" xmlns:xlink="http://www.w3.org/1999/xlink" x="0px" y="0px"
	 viewBox="0 0 144 129.6" style="enable-background:new 0 0 144 129.6;" xml:space="preserve">
<style type="text/css">
	.st0{fill:#FFFFFF;stroke:#000000;stroke-miterlimit:10;}
	.st1{fill:none;}
	.st2{font-family:'PTSerif-Regular';}
	.st3{font-size:8.1615px;}
	.st4{font-size:7.5785px;}
</style>
<polygon class="st0" points="-141,-219.2 -139,-219.2 -139,-219.2 -141,-219.2 "/>
<g>
	<g>
		<path d="M114.5,82.6c0.5,0.6,0.9,1.2,1.6,2c-0.9-0.2-1.5-0.3-2.2-0.4c-0.1,0.1-0.1,0.1-0.2,0.2c0.8,1,1.5,2.1,2.3,3.1l0,0
			c0.2,0.2,0.4,0.4,0.5,0.6c-0.8-0.1-1.5-0.2-2.5-0.3c1.2,1.4,2.2,2.6,3.4,4.1c-1.2-0.4-2.2-0.7-3.2-1c0.3,0.9,2.1,2.3,3.6,2.8
			c0.1,0.1,0.2,0.1,0.3,0.2l0,0c-0.3,0.1-0.6,0.2-0.9,0.3c-1.6-0.3-3.3-0.6-5-0.9c0,0.9,0,1.9,0,2.8c0,0.3-0.1,0.7,0,1
			c0.1,0.9-0.3,1.1-1.1,1c-0.6,0-0.8-0.2-0.7-0.8c0-0.6,0-1.2,0-1.8c0-0.8,0-1.6,0-2.4c-1.1,0.3-2,0.6-2.9,0.8
			c-1.7,0.4-2.2,0.4-2.7-0.1c1.4-0.7,2.8-1.4,3.5-2.9c-1,0.3-2,0.6-3.3,1c0.6-0.7,1-1.1,1.4-1.6l0,0c0.1-0.1,0.1-0.1,0.2-0.2
			c0.6-0.7,1.3-1.4,1.9-2.2c-0.1-0.1-0.1-0.1-0.2-0.2c-0.7,0.2-1.4,0.4-2.1,0.6c0.9-1.4,1.8-2.7,2.6-4.1c0,0,0-0.1,0-0.1
			c0,0-0.1,0-0.1,0.1c-0.7,0.1-1.4,0.3-2,0.4c1-1.4,2.2-2.4,2.8-3.9c-0.6-0.2-1-0.4-1.5-0.5c1.2-1.4,2.3-2.9,3.4-4.2
			c0.9,1.3,1.9,2.8,3,4.4c-0.4,0.1-0.8,0.1-1.4,0.2C113.6,81.3,114,81.9,114.5,82.6z"/>
		<path d="M34.4,100.4c0.8-2.5,1.5-4.9,2.3-7.4c0.7-2.1,1.4-4.3,2.1-6.4c0.3-0.7,0.5-1.4,0.8-2.1c0.6-1.4,0.6-3,2-3.9
			c0.5-0.2,0.9-0.3,1.2,0.3c0.3,1.3,0.7,2.6,1,4c0.7,3.6,1.5,7.1,2.2,10.7c0.6,2.9,1.2,5.8,1.8,8.7c0,0.2,0,0.3,0.1,0.5
			c0.1,0.7,0.3,1.4-0.5,1.8c-0.6,0.4-1.8,0.3-2.3-0.4c-0.6-0.9-1-2-1.4-3c-0.2-0.5-0.3-1.2-0.4-1.8c-0.4-2.1-0.7-4.2-1.2-6.3
			c0-0.2-0.4-0.4-0.6-0.5c-1-0.1-2-0.2-3-0.2c-0.3,0-0.8,0.2-0.9,0.4c-0.9,2.5-1.7,5.1-2.6,7.7c-0.3,0.8-0.4,1.8-1.4,2.4
			C33.5,103.2,34.3,101.8,34.4,100.4z M41.2,85.2c-0.1,0-0.2,0-0.2,0c-0.9,2.5-1.8,5-2.8,7.6c1.2,0,2.2,0,3.2,0
			c0.2,0,0.5-0.4,0.5-0.5C41.7,89.9,41.4,87.6,41.2,85.2z"/>
		<path d="M61.6,103c-0.2,0.3-0.4,0.6-0.5,0.9c-0.2,0.4-0.4,0.9-0.6,1.2c-0.7,1.1-1.7,1.1-2.2,0c-0.9-1.9-1.6-3.9-2.3-5.8
			c-0.2-0.4-0.2-0.9-0.4-1.3c-0.1,0-0.2,0-0.2,0c-0.2,1.2-0.4,2.4-0.6,3.6c-0.2,1.4-0.4,2.8-0.7,4.2c-0.1,0.3-0.4,0.8-0.7,0.8
			c-0.3,0-0.8-0.3-1-0.6c-0.4-0.6-0.7-1.3-1-1.9c-0.1-0.4-0.3-0.7-0.4-1.1c-0.6-2.2-1.1-4.4-1.7-6.6c-0.1-0.4-0.1-0.9-0.2-1.3
			c0-0.1-0.1-0.2-0.1-0.3c0-0.3,0-0.7-0.1-1c0-0.1-0.1-0.2-0.1-0.2c0-0.2,0-0.4,0-0.6c-0.1-0.9-0.2-1.8-0.1-2.8c0-0.3,0.3-0.6,0.5-1
			c0.2,0.2,0.6,0.4,0.7,0.7c0.4,0.7,0.7,1.5,0.9,2.3c0.7,3,1.4,6.1,2.1,9.2c0.1,0.3,0.2,0.6,0.3,0.9c0.3-0.9,0.4-1.8,0.6-2.7
			c0.4-1.9,0.8-3.8,1.3-5.7c0.1-0.4,0.5-0.7,0.8-1c0.3,0.3,0.8,0.6,1,1c0.6,1.2,1,2.5,1.5,3.8c0.5,1.3,1,2.6,1.5,3.9
			c0.1,0,0.2,0,0.2,0c0.2-1,0.4-2.1,0.6-3.1c0.8-3.6,1.5-7.1,2.3-10.7c0.1-0.4,0.5-0.7,0.8-1.1c0.1,0.1,0.3,0.1,0.4,0.2
			c-0.3,1.9-0.6,3.7-0.9,5.6c0,0.1,0,0.1,0,0.2c0,0.1,0,0.3,0,0.4c-0.1,0.2-0.2,0.4-0.2,0.6c-0.4,2.8-0.9,5.6-1.3,8.4
			c0,0.1-0.1,0.3-0.1,0.4C61.7,102.6,61.6,102.8,61.6,103z"/>
		<path d="M68.5,104.3c-0.9,0-1.8,0.1-2.4-0.8c-0.8-1.5-0.8-3.1-0.5-4.7c0.4-1.8,1-3.4,1.5-5.2c0.1-0.1,0.2-0.1,0.2-0.2
			c0.1-0.1,0.1-0.1,0.2-0.2c0.1-0.2,0.3-0.4,0.4-0.5c0.1-0.1,0.1-0.2,0.2-0.3c0.1,0,0.1-0.1,0.1-0.1c0.1-0.1,0.1-0.1,0.2-0.2l0,0
			c0.1-0.1,0.1-0.1,0.2-0.2l0,0c0.1-0.1,0.1-0.1,0.2-0.2c1.3-1.1,2.7-2.1,4.4-2.5c0.7-0.1,1-0.5,1.1-1.1c0-0.2,0.1-0.4,0.2-0.6
			c0.2-0.2,0.4-0.5,0.6-0.5c0.2,0,0.6,0.2,0.7,0.4c0.2,0.5,0.3,1.1,0.3,1.6c0,2,0,3.9,0,5.9c0.1,1,0.1,1.9,0.3,2.9
			c0.5,2.4,1,4.7,1.5,7.1c0,0.3,0.1,0.6,0,0.8c-0.2,0.4-0.6,0.8-1,0.9c-0.3,0.1-0.9-0.1-1.2-0.4c-0.4-0.4-0.5-1-0.8-1.5
			c-0.4-2.9-0.9-5.9-1.3-8.8c-0.7,1.6-1.3,3.3-2,4.9C70.9,102.2,70.1,103.5,68.5,104.3z M69,101.7c1.4-0.7,5-8.9,4.7-10.8
			C70.1,91.9,67.3,98.4,69,101.7z"/>
		<path d="M90.9,80.2c0,0.8-0.3,1.7,0,2.4c0.4,0.9,1.4,0.2,2.1,0.5c0.7,0.2,1.4,0.4,2.1,0.6c0,0.1,0,0.3,0,0.4
			c-1,0.2-1.9,0.4-2.9,0.5c-1.5,0.1-1.5,0-1.4,1.5c0,2.9,0,5.8,0,8.7c0.1,2.5,0.1,5,0.2,7.6c0.5,1.8,0.9,3.6,1.4,5.4
			c0.1,0.2,0.1,0.6,0,0.7c-0.2,0.2-0.6,0.3-0.8,0.2c-1.2-0.2-2-0.8-2.4-1.9c-0.4-0.9-0.6-1.8-0.9-2.8c-0.1-3.1-0.3-6.1-0.4-9.2
			c0.1-3.1,0.2-6.1,0.4-9.2c0-0.8-0.2-1-1-1c-1.1,0.1-2.3,0-3.4,0c-0.2-0.2-0.4-0.5-0.6-0.7c0.3-0.1,0.5-0.3,0.8-0.4
			c1-0.1,2.1-0.3,3.1-0.3c1.2-0.1,1.2,0,1.2-1.3c0-0.2,0.1-0.5,0.1-0.7c0-0.2,0.1-0.5,0.1-0.7c0.1-0.6,0.3-1.1,0.3-1.7
			c0-0.6,0.3-1,1-1c0.7,0,0.9,0.5,1,1.1C90.8,79.2,90.9,79.7,90.9,80.2z"/>
		<path d="M103.2,103.1c-0.3,0.8-0.5,1.6-1,2.3c-1.4,2-3.4,1.6-5.1,0.2c-1.1-0.9-1.8-2.2-1.9-3.7c-0.3-1.3,0.3-2.3,0.9-3.4
			c0.4,0.6,0.7,1.3,1,1.9c0.3,0.8,0.6,1.7,1,2.4c0.2,0.4,0.8,0.8,1.2,0.7c0.4-0.1,0.8-0.7,0.9-1.1c0.4-1.5,0.4-3.1-0.2-4.5
			c-0.6-1.2-1.3-2.4-1.9-3.5c-0.1-0.3-0.2-0.6-0.3-0.8c-0.7-1.8-1-3.6,0.1-5.3c1.2-1.7,2.6-2,3.9-0.8c1.1,1,1.8,2.3,2.2,3.8
			c0.1,0.2-0.1,0.5-0.1,0.8c-0.1,0-0.2,0-0.3,0c-0.1-0.3-0.2-0.5-0.3-0.8c-0.4-0.7-0.7-1.5-1.2-2.1c-0.8-0.8-1.5-0.5-2,0.5
			c-0.3,0.9-0.3,1.7,0.1,2.5c0.8,1.5,1.6,3,2.5,4.5C103.4,98.6,103.6,100.9,103.2,103.1z"/>
		<path d="M81.6,94.6c0.1,2.6,0.1,5.2,0.2,7.8c0,0.1,0,0.1,0,0.2c0,0.5,0.1,1,0.1,1.5c0,0.5,0.1,1,0,1.6c-0.1,0.3-0.3,0.9-0.5,0.9
			c-0.4,0-0.8-0.2-1.2-0.5c-0.2-0.2-0.3-0.5-0.5-0.8c-0.1-0.7-0.2-1.4-0.3-2.1c-0.2-2.9-0.3-5.7-0.4-8.6c0-0.4,0-0.9,0-1.3
			c0-0.8-0.1-1.5,0.1-2.3c0.1-0.4,0.5-0.7,0.8-1c0.3,0.3,0.6,0.5,0.9,0.8c0.1,0.1,0.1,0.3,0.1,0.4C81.3,92.4,81.5,93.5,81.6,94.6z"
			/>
		<path d="M37.7,35.4c0.7-0.7,1.4-1.4,2.1-2c1.2-1,2.4-1.8,3.7-2.7c1.1-0.8,2.1-1.5,3.2-2.3c0.1,0,0.1,0,0.2-0.1
			c1.8,0.4,3.6,0.8,5,2.2c1.5,1.5,3.4,2.5,5.6,3c0.8,0.2,1.6,0.3,2.4,0.5c0.6,0.2,1,0.1,1.3-0.5c0.4-0.6,0.9-1.3,1.5-1.6
			c2.6-1.5,5.2-2.9,7.8-4.4c0.5-0.3,0.8-0.8,1.3-1.1c0.9-0.5,1.9-0.9,2.8-1.5c0.9-0.6,1.8-1.2,2.8-1.8c2.4-1.5,4.8-3,7.2-4.6
			c0.5-0.3,0.9-0.8,1.3-1.2c0.5-0.5,0.7-1.3,1.8-1.4c0.8-0.1,1.5-1.1,2.2-1.6c0.7-0.5,1.5-0.9,2.4-1.4c1.3,1.7,2.6,3.4,3.8,5
			c2.3,2.5,4.6,4.9,6.9,7.4c1.6,1.7,3.2,3.4,4.9,5c0.4,0.4,1.1,0.5,1.6,0.8c0.2,0.2,0.4,0.5,0.6,0.6c1.6,1.3,3.1,2.7,4.8,4
			c1.1,0.8,2.3,1.5,3.5,2.3c1.4,1.1,2.7,2.2,4.1,3.2c1.2,1,2.6,1.8,3.7,2.9c0.8,0.7,1.6,1.6,2.1,2.5c0.7,1.3,1.6,2.1,3.1,2.7
			c1.4,0.5,2.6,1.3,3.9,2c1.4,1.2,3.1,2,5,2.4c0.3,0.1,0.6,0.1,0.9,0.2c0.3,0.1,0.6,0.3,0.6,0.6c0,0.2-0.3,0.5-0.5,0.6
			c-1,0.6-2,0.9-3.1,0.2c-0.3-0.2-0.8-0.2-1.2-0.3c-1.8-0.2-3.5-0.2-5.3-0.5c-1.3-0.2-2.5-0.7-3.7-1c-0.7-0.2-1.5-0.2-2.2-0.5
			c-1.9-0.9-3-2.3-3.4-4.2c-0.9-1.6-1.6-3.2-2.7-4.6c-1-1.4-2.2-2.7-4.2-3.4c-2.2-0.7-4.4-1.7-6-3.4c-1.1-1.1-2.6-1.9-4.3-3
			c0.3,2.3,0.6,4.2,0.8,6.2c0.2,2,1.2,3.4,2.9,4.4c1.1,0.7,2.3,1.3,3.5,2c0,0.1,0,0.2,0,0.3c-0.6-0.1-1.2,0-1.7-0.2
			c-2.2-1-4.4-2.1-6.4-3.3c-1.7-1-2.8-2.4-3-4.3c-0.2-1.9-0.6-3.8-1.9-5.4c-0.1-0.2-0.3-0.4-0.4-0.6c-0.1-0.1-0.1-0.2-0.2-0.2l0,0
			c-0.1-0.1-0.2-0.2-0.2-0.3c-2.2-3-2.6-6.6-4-9.9c-1.1,0.8-1.4,1.6-1.7,3c-0.4,2-0.9,4-1.4,6c-0.1,0.1-0.1,0.2-0.2,0.3
			c-0.1,0.1-0.2,0.2-0.3,0.4c-0.1,0.1-0.2,0.2-0.2,0.3c-0.1,0.2-0.2,0.4-0.3,0.5l0,0c-0.1,0-0.1,0-0.1,0.1c-0.3,0.7-0.8,1.5-0.9,2.2
			c-0.2,2-0.3,4-0.3,6.1c0,2.3-0.5,3.1-2.8,4c0.2-1.8,0.4-3.6,0.5-5.4c0-0.7-0.3-1.3-0.4-2c-1.5-2.1-1.6-4.2-0.2-6.4
			c1.1-1.7,1.1-3.7,1.2-5.7c0-1-0.6-1.2-1.5-0.7c-0.3,0.2-0.6,0.5-0.9,0.7c-1.2,0.7-2.4,1.4-3.4,2.2c-1,0.8-2.1,1.6-2.6,2.6
			c-1.4,2.5-3.4,4.3-6,5.5c-0.7,0.3-1.5,0.3-2.2,0.4c-0.1-0.1-0.2-0.3-0.3-0.4c2.3-1.7,4-3.8,4.1-6.6c-2.4,0.6-4.4,2-6.1,3.8
			c-1.6,1.8-3.3,3.5-4.9,5.3c-0.6,0.3-1.3,0.6-1.9,0.9C60.2,41,60.2,41,59,40c-0.6,1.7,0,5,1,6.3c0.4,0.5,0.7,0.9,1.1,1.4
			c0.6,0.9,1.3,1.7,2,2.6c-1.6,0.5-3.6-0.1-4.6-1.4c-0.3-0.4-0.7-0.7-1-1c-0.1-0.1-0.3-0.2-0.4-0.3l0,0c-0.6-0.5-1.2-1-1.6-1.6
			c-0.8-1-2-1.9-2.2-3c-0.7-3-2.9-5.2-4.2-7.9c-0.4-0.9-1-0.6-1.5,0c-0.6,0.6-1.2,1.2-1.8,1.7c-3.1,2.2-6,4.6-7.7,8.1
			c-0.8,1.7-2.5,3.1-3.8,4.6c-2.3,1.6-4.5,3.2-6.8,4.8c-0.2,0-0.4-0.1-0.5-0.1c1.2-2.1,2.5-4.2,3.9-6.6c-1.2,0.4-2.1,0.8-3,1.1
			c-1.1,0.4-2.2,0.8-3.3,1.4c-1.1,0.6-2.2,1.3-3.2,1.9c-1.9,1.1-3.8,2.5-6.2,2.4c-0.4,0-0.9,0.1-1.2,0.3c-1.1,0.9-2.5,0.9-3.8,1.1
			c-1.1,0.1-2.3,0.5-3.4,0.9c-1.1,0.4-2.2,0.4-3.4,0.1c0.2-0.4,0.4-0.8,0.5-1.1c2.2-1.1,4.3-2,6.8-2.6c3.1-0.8,6.3-1.6,8.8-3.7
			c0.7-0.5,1.2-1.4,1.6-2.1c0.8-1.4,1.8-2.3,3.6-2.6c0.8-0.1,1.5-0.7,2.2-1.1c1.3-0.8,2.5-1.7,3.8-2.5
			C33.2,39.6,35.7,37.8,37.7,35.4z"/>
		<path d="M119,68.6c-0.2,0.4-0.3,1-0.6,1.3c-1.3,1.5-2.6,2.9-4.5,3.5c-0.2,0.1-0.4,0.1-0.6,0.2c-0.4,0.1-0.9,0.1-1.3,0.2
			c-0.4,0-0.7,0-1.1,0c-0.3,0-0.6,0-0.9-0.1c-1-0.4-1.9-0.8-3-1.3c-1.2,2.4-2.6,5-3.9,7.6c0,0,0,0.1,0,0.1c-0.2,0.1-0.3,0.3-0.5,0.4
			c-0.5,0.2-1.1,0.4-1.6,0.6c-0.4-0.9-0.9-1.8-1.1-2.7c-0.2-0.7-0.1-1.5-0.2-2.3c0.1-1.4,0.1-2.9,0.4-4.3c0.3-1.4,0.8-2.7,1.3-4
			c0.5-1.3,1.7-2.2,2.1-3.6c-0.3,0-0.4,0.1-0.6,0.2c-1.2,1.4-2.4,2.7-3.7,4.1c-0.7,0.7-1.3,1.5-2,2.1c-0.5,0.5-1.2,0.9-1.9,0.2
			c-0.8,1-1.5,1.9-2.2,2.8c0,0.1-0.1,0.1-0.1,0.2c-0.1,0-0.1,0.1-0.1,0.1c-0.7,0.5-1.3,1.1-2.1,1.5c-0.8,0.4-1.1,0.2-1.1-0.7
			c0-0.7,0.1-1.5,0.2-2.2c-0.9,1.5-1.9,2.6-3.7,2.8c-1.7,0.1-3.2-0.3-3.6-2.4c-0.6,0.7-1,1.2-1.4,1.7c-1.2,1.5-2.7,2.3-4.7,1.8
			c-0.7-0.1-0.9-0.4-1-1c-0.1-1-0.2-2-0.3-3.3c-0.2,0.4-0.3,0.5-0.3,0.7c-0.6,1.4-1.2,2.8-1.9,4.2c-0.2,0.4-0.9,0.9-1.3,0.8
			c-0.5-0.1-1-0.7-1.3-1.1c-0.4-0.8-0.5-1.7-0.3-2.6c0.3-1.1,0.7-2.3,0.9-3.4c0.2-1.4,0.3-2.8,0.5-4.2c-0.1,0-0.3-0.1-0.4-0.1
			c-1.8,1.9-2.9,4.2-3.8,6.6c0,0,0,0.1,0,0.1c-0.1,0.1-0.1,0.3-0.2,0.4c-0.2,0.2-0.5,0.7-0.7,0.7c-0.7,0-1.4,0-2.1-0.2
			c-0.2-0.1-0.5-0.5-0.5-0.8c0-0.7,0-1.3,0.1-2.2c-2.3,2.1-4.6,3.3-7.5,2.8c-2-0.3-2.9-1.2-2.6-3.2c0-0.1,0-0.1-0.1-0.2
			c-0.1,0.1-0.2,0.1-0.3,0.2c-1.1,0.9-2.2,1.9-3.6,2.5c-1.3,0.5-2.3,1.8-3.5,2.6c-1,0.7-2,0.5-2.7-0.5c-0.8-1.1-1.3-2.3-2-3.4
			c-0.2,0.2-0.4,0.6-0.7,0.9c0,0-0.1,0-0.1-0.1c0.3-0.7,0.6-1.5,0.8-2.2c0.5-2.1,0.8-4.2,1.3-6.4c0-0.2,0.3-0.5,0.5-0.5
			c1.1-0.2,2.3,1.1,2,2.1c-0.3,1.3-0.6,2.6-0.9,3.9c-0.4,1.6-0.5,3.2,0.1,4.8c0.2,0.4,0.5,0.8,0.7,1.3c0.2-0.2,0.3-0.2,0.4-0.3
			c0.8-1.6,1.7-3.2,2.5-4.8c0.1-0.2,0.1-0.5,0.1-0.8c0-1.3-0.2-2.5-0.1-3.8c0.1-1-0.1-2.1,0.7-2.9c0.1-0.1,0.2-0.3,0.3-0.4
			c0.8-1.2,1.7-1.3,2.7-0.3c0.4,0.5,0.7,1.1,1,1.7c-1,2.9-2,5.9-3,8.9c2.1-1.1,3.9-2.4,4.8-4.6c0.9-2.4,2.4-3.9,5.2-3.6
			c0.1,0,0.3,0,0.5-0.1c0.2,0,0.5,0,0.7,0.1l0.1,0l0.1,0c0.5,0.4,0.9,0.8,1.4,1.2c0.4,1,0.4,1.9-0.6,2.6c-1.5,0.9-3,1.9-4.8,1.9
			c-0.2,0-0.5,0.2-0.5,0.3c-0.1,0.8-0.3,1.7,0,2.4c0.2,0.4,1.3,0.3,2,0.5c0.1,0,0.1,0,0.2,0c2.1-0.1,3.5-1.4,4.8-2.7
			c1.3-1.2,1.6-2.7,1.3-4.4c0.8-0.1,1.5-0.2,2.3-0.2c1,0,1.2,0.3,1,1.3c-0.2,1.1-0.5,2.2-0.7,3.3c0,0.1-0.1,0.3-0.1,0.4
			c0,0,0.1,0,0.1,0c0-0.1,0-0.2,0.1-0.3c0.9-1.5,1.7-3,2.7-4.4c0.7-1.1,1.9-0.6,2.9-0.5c0.3,0,0.5,0.8,0.8,1.2
			c0,0.2,0.1,0.3,0.1,0.5c0,0.1-0.1,0.2-0.1,0.3c-0.5,2.8-0.9,5.5-1.4,8.3c0.2,0,0.3,0.1,0.5,0.1c1.1-2.5,2.3-4.9,2.2-7.7
			c0-0.1,0-0.1,0-0.2c0.1-0.7,0.2-1.3,0.3-2c0.4-1.9,0.7-3.8,1.1-5.9c-2.8,0.2-5.4,0.3-8.1,0.5c-0.2-0.5,0.2-0.8,0.7-0.9
			c0.7-0.2,1.4-0.3,2.1-0.4c0.4,0,0.7,0,1.1-0.1c1.4,0,2.9,0,4.4,0c0.1-0.4,0.1-0.8,0.2-1.2c0.2-1,0.5-2.1,0.7-3.1
			c0.2-0.6,0.4-1.2,0.5-1.7c0.3-1.3,1.4-1.9,2.4-2.6c0.7-0.4,1.2-0.1,1.1,0.7c-0.1,1.1-0.4,2.2-0.6,3.2c-0.5,1.7-0.9,3.4-1.4,5.2
			c2.6,1.3,5,0.7,7.5,0c0.1,0.2,0.3,0.5,0.4,0.7c-0.4,0.2-0.8,0.7-1.3,0.7c-2.1,0.3-4.1,0.4-6.1-0.3c-0.2-0.1-0.4-0.1-0.8-0.1
			c-0.3,2.5-0.6,5-0.9,7.4c-0.3,2-0.2,4.1,0.3,6.1c0.2,0.9,0.7,0.9,1.4,0.3c1.6-1.5,2.4-3.4,2.4-5.6c0-0.2,0.1-0.5,0.1-0.7
			c0-0.2,0-0.4,0.1-0.6c0.3-1.2,0.6-2.5,0.9-3.6c0.6-0.1,1.2-0.1,1.6-0.3c0.7-0.3,1.3-0.1,1.8,0.3c0.3,0.3,0.3,1,0.2,1.4
			c-0.2,1.1-0.4,2.3-0.7,3.4l0,0c0,0.1,0,0.2,0,0.3c-0.1,0.2-0.3,0.3-0.3,0.5c-0.1,1.2-0.2,2.3-0.2,3.5c0,0.4,0.4,0.8,0.6,1.2
			c0.4-0.2,1.1-0.3,1.3-0.7c0.7-1.4,1.3-2.8,1.9-4.2c0-0.1,0-0.2,0.1-0.4c0.1-0.2,0.1-0.5,0.2-0.7c0.4-1.6,0.8-3.2,1.1-4.8l0,0
			c0.1,0,0.2,0,0.3-0.1c0.3,0,0.6,0,0.9,0c0.2,0.1,0.5,0.1,0.7,0.2c0.6,0.5,0.4,1,0.3,1.6c-0.6,2.3-1.1,4.6-1.6,6.9
			c-0.1,0.3-0.1,0.7-0.1,1c0.1,0,0.2,0.1,0.3,0.1c1.2-1.2,2.3-2.6,3-4.1c0.6-1.4,0.8-3,1.1-4.4c0.1-0.3,0.2-0.6,0.3-0.9
			c0.1-0.3,0.3-0.6,0.4-0.9c0.1,0,0.1,0,0.2,0c0.2,0,0.3,0.1,0.5,0.1c1.9,0.9,1.9,0.9,1.3,2.9c-0.1,0.4-0.2,0.8-0.2,1.2
			c1.2-1.2,2.2-2.5,3.2-3.7c0.3-0.4,0.8-0.6,1.2-0.9c0.2,0,0.4,0,0.5,0c0.3,0.2,0.6,0.4,0.8,0.4c1,0.1,1.5,0.7,1.1,1.7
			c-0.2,0.6-0.6,1.1-0.8,1.7c0,0.1-0.1,0.1-0.1,0.2c0,0-0.1,0.1,0,0.1c-0.1,0.1-0.1,0.2-0.2,0.3c-0.1,0.1-0.2,0.2-0.2,0.3
			c-0.2,0.3-0.3,0.5-0.5,0.8l0,0c-1.7,2.6-2.4,9.2-0.9,10.6c2.2-3.6,3.8-7.6,5.3-11.5c0.5-1.2,1-2.3,2.5-2.7
			c0.2-0.1,0.5-0.2,0.7-0.2c0.5,0,0.9-0.1,1.4-0.1c0.1,0,0.3,0,0.4,0c0.3,0,0.6,0,0.9,0c0.1,0,0.3,0,0.4,0c1.6,0.5,2.1,2.1,1.1,3.6
			c-1.7,1-3.4,2.1-5.6,2c-0.1,0.7-0.3,1.4-0.2,2.1c0,0.3,0.5,0.8,0.8,0.9c1.6,0.2,3.2,0.2,4.4-0.9c1.3-1.1,2.4-2.4,3.6-3.6
			C118.9,68.7,119,68.7,119,68.6z M57.2,69.8c0.3,0.1,0.4,0.1,0.5,0.1c1.2,0,3.9-2.7,3.9-3.9c0-0.3-0.3-0.8-0.5-1
			c-0.2-0.1-0.7,0-0.9,0.2C58.8,66.4,57.9,68,57.2,69.8z M110.4,69.8c0.3,0.1,0.4,0.1,0.5,0.1c1.3,0,4-2.7,3.9-4
			c0-0.3-0.2-0.8-0.5-0.9c-0.2-0.1-0.8,0-1,0.2C112.1,66.4,111.2,68,110.4,69.8z M48.6,69.1c0.1,0,0.3,0.1,0.4,0.1c0.7-2,1.4-4,2-6
			c0.1-0.3,0-0.7-0.1-1.1c-0.4,0.2-0.9,0.3-1.1,0.5c-0.4,0.6-0.8,1.3-0.9,2C48.8,66.2,48.8,67.7,48.6,69.1z"/>
		<path d="M28.3,60c0,0,0,0.1,0,0.1c0,0.6,0,1.2-0.1,1.8c-0.4,3.4-0.9,6.8-1.1,10.2c-0.1,1.3,0.1,2.7,0.3,4c0.1,0.8,0.8,1,1.3,0.4
			c0.8-0.8,1.3-1.8,1.4-3c0.1-1.4,0.1-2.8,0.4-4.2c0.4-1.9,1.6-3.3,3.5-3.8c1.6-0.5,2.7-0.1,3.4,1.3c0.4-2.6,0.9-5.2,1.3-7.9
			c0.7-2.4,1.5-4.8,2.2-7.2c0.5-0.7,1-1.5,1.7-2c1.2-1,2.2-0.8,3.2,0.4c0.1,0.2,0.1,0.4,0.2,0.6l0,0c-0.1,1.3-0.3,2.7-0.4,4
			c-0.4,1.2-0.8,2.5-1.2,3.8c0.5-0.1,0.9-0.2,1.3-0.2c0,0.1,0,0.1,0.1,0.2c-0.2,0.1-0.3,0.1-0.5,0.2c-0.8,0.1-1.3,0.5-1.7,1.3
			c-0.3,0.6-0.7,1.2-1.1,1.7c-0.3,0-0.7,0.1-0.8,0c-0.2-0.2-0.2-0.6-0.1-0.8c0.1-0.4,0.3-0.8,0.5-1.2c0.3-0.2,0.5-0.6,0.8-0.7
			c0.6-0.2,0.9-0.5,1.1-1.1c0.3-1.1,0.7-2.1,0.9-3.2c0.2-1.2,0.4-2.5,0.4-3.7c0-0.3-0.3-0.6-0.5-0.9c-0.3,0.2-0.6,0.4-0.8,0.6
			c-0.2,0.2-0.4,0.6-0.5,0.9c-1.2,2.7-2,5.5-2.5,8.3c-0.3,1.3-0.6,2.6-0.8,4c-0.3,2.7-0.5,5.4-0.6,8.2c0,0.5,0.1,1,0.2,1.7
			c0.5-0.6,0.9-1,1.2-1.4c0,0,0.1,0,0.1,0.1c-0.5,0.8-0.7,1.8-1.7,2.2c-2.2-0.7-2.3-0.9-2.4-3.2C37,70,36.9,68.5,36.8,67
			c-0.1-0.9-0.6-1.2-1.3-0.6c-0.7,0.6-1.5,1.5-1.8,2.3c-0.4,1.5-0.4,3.1-0.6,4.7c0,0.3,0.1,0.6,0.1,1c2.1-1,2.2-1,2.2,0.3
			c-0.3,1-0.6,1.9-1,2.9c-0.3,0.8-0.9,1.1-1.7,1.1c-0.4,0-0.8-0.2-1.4-0.3c-0.1,0.9-0.2,1.8-0.3,2.7c0.2,0.6,0.4,1.3,0.6,2.1
			c-0.8-0.5-0.9-1.2-1-1.9c0-0.3,0-0.6,0-0.9c0-0.1,0-0.1,0-0.2c0.5-1.6,0.7-3.1-0.3-4.6c-2,2.7-4.2,3.5-6.7,2.5
			c0.1-1.4,0.1-2.8,0.2-4.2c0-0.3,0-0.6,0-0.8c0-0.1,0.1-0.2,0.1-0.3c0.4-2.2,0.7-4.3,1.1-6.6c-1.2,0-2.4,0-3.5,0
			c-0.3,0-0.7,0.3-0.7,0.5c-0.9,2.8-1.8,5.5-2.6,8.3c-0.1,0.2-0.2,0.4-0.3,0.7c-0.1,0.3-0.3,0.6-0.4,0.9c-0.1,0.2-0.2,0.4-0.4,0.6
			c0,0-0.1,0.1-0.1,0.1c-0.3,0.3-0.6,0.7-0.9,1c-1.7,1.6-3.5,1.5-5.1-0.2c-0.8-1.3-0.7-2.7-0.7-4.1c0.1-0.3,0.1-0.6,0.2-0.9
			c0.1-0.2,0.2-0.3,0.4-0.4c0.1,0.1,0.3,0.2,0.4,0.4c0,0.9-0.1,1.8,0,2.7c0.1,1.4,0.8,2.5,1.7,2.7c1.3,0.2,2.1-0.7,2.5-1.6
			c1-2.2,1.8-4.5,2.6-6.8c0.3-0.9,0.7-1.8,1-2.7C19,67.1,19,67,19,67c1.1-2.5,2.2-4.9,3.3-7.4c-0.1,0-0.4,0-0.6,0
			c-4.3,1.2-7.5,3.8-9.9,7.5c-0.4,0.6-0.4,1.4-0.3,2.1c0.2,1.2,1.2,1.4,2,0.6c1.1-1,1.3-2.2,0.8-3.6c-0.1-0.2,0.1-0.5,0.2-0.7
			c0.2,0.2,0.4,0.3,0.5,0.5c0.4,1.1,0.4,2.2,0,3.3c-0.5,1.2-1.3,1.8-2.4,1.7c-1.1-0.1-1.6-0.6-1.8-2c0-0.2,0-0.4,0-0.6
			c0-0.1,0-0.1,0-0.2c0.4-2.1,1.6-3.7,3-5.2c1.7-1.9,4-2.7,6.1-3.8c1.2-0.6,2.9-0.5,4.3-0.7c0.5-0.1,1,0,1.5,0
			c1.2-0.2,2,0.2,2.6,1.3C28.2,59.9,28.2,59.9,28.3,60z M21.3,65c0.1,0.1,0.1,0.1,0.2,0.2c0.3-0.1,0.7-0.2,1-0.3
			c1-0.3,2.2-0.4,2.8-1c0.6-0.7,0.5-2,0.8-3c0.1-0.5,0.4-1-0.3-1.2c-0.7-0.2-1.4-0.4-1.9,0.4C23,61.7,22.1,63.4,21.3,65z M34.9,74.2
			c-0.1-0.1-0.2-0.2-0.2-0.2c-0.5,0.4-1.2,0.7-1.3,1.1c-0.2,0.6,0.1,1.4,0.1,2.1c0.1,0,0.2,0,0.4,0C34.7,76.4,34.9,75.4,34.9,74.2z
			 M43.5,59.5c-1.2,0.2-1.9,1.1-1.5,2.2C42.6,61,43,60.3,43.5,59.5z"/>
	</g>
	<rect x="14.6" y="83.2" class="st1" width="18.7" height="9.4"/>
	<text transform="matrix(1 0 0 1 17.189 89.3264)" class="st2 st3">Est.</text>
	<rect x="120.2" y="83.1" class="st1" width="18.7" height="9.4"/>
	<text transform="matrix(1 0 0 1 121.4697 88.8479)" class="st2 st4">2017</text>
</g>
<g>
	<g>
		<path d="M79.9,88.2c1.6,0,2.2-2,0.3-2C78.5,86.2,77.9,88.2,79.9,88.2L79.9,88.2z"/>
	</g>
</g>
</svg>
